<svg xmlns="http://www.w3.org/2000/svg" viewBox="0 0 128 128" role="img" aria-label="Doraemon mark">
  <circle cx="64" cy="64" r="58" fill="#2f98ff"/>
  <circle cx="64" cy="70" r="45" fill="#ffffff"/>
  <ellipse cx="50" cy="50" rx="11" ry="14" fill="#ffffff"/>
  <ellipse cx="78" cy="50" rx="11" ry="14" fill="#ffffff"/>
  <circle cx="54" cy="54" r="4" fill="#1f2a3a"/>
  <circle cx="74" cy="54" r="4" fill="#1f2a3a"/>
  <circle cx="64" cy="66" r="8" fill="#ff4757"/>
  <rect x="63" y="74" width="2" height="18" fill="#1f2a3a"/>
  <path d="M38 82c9 10 20 15 26 15s17-5 26-15" stroke="#1f2a3a" stroke-width="4" fill="none" stroke-linecap="round"/>
  <path d="M26 66h28M26 74h26M74 66h28M76 74h26" stroke="#1f2a3a" stroke-width="3" stroke-linecap="round"/>
  <path d="M30 36c9-14 21-22 34-22s25 8 34 22" stroke="#1f2a3a" stroke-opacity="0.2" stroke-width="4" fill="none"/>
</svg>
